<svg xmlns="http://www.w3.org/2000/svg" width="780" height="420" viewBox="0 0 780 420" font-family="Helvetica,Arial,sans-serif">
<rect width="780" height="420" fill="#fcfcfb"/>
<text x="74" y="30" font-size="16" font-weight="600" fill="#0b0b0b">Input shape vs moves</text>
<text x="74" y="50" font-size="11.5" fill="#52514e">n = 8,000, best of repeated runs - linear axis</text>
<rect x="74.0" y="60" width="10" height="10" rx="2" fill="#2a78d6"/>
<text x="89.0" y="69" font-size="11" fill="#52514e">quickSort</text>
<rect x="155.6" y="60" width="10" height="10" rx="2" fill="#eb6834"/>
<text x="170.6" y="69" font-size="11" fill="#52514e">mergeSort</text>
<rect x="237.2" y="60" width="10" height="10" rx="2" fill="#1baf7a"/>
<text x="252.2" y="69" font-size="11" fill="#52514e">heapSort</text>
<line x1="74" y1="356.0" x2="754" y2="356.0" stroke="#e6e5e1" stroke-width="1"/>
<text x="66" y="359.5" font-size="10" fill="#52514e" text-anchor="end">0</text>
<line x1="74" y1="287.0" x2="754" y2="287.0" stroke="#e6e5e1" stroke-width="1"/>
<text x="66" y="290.5" font-size="10" fill="#52514e" text-anchor="end">100K</text>
<line x1="74" y1="218.0" x2="754" y2="218.0" stroke="#e6e5e1" stroke-width="1"/>
<text x="66" y="221.5" font-size="10" fill="#52514e" text-anchor="end">200K</text>
<line x1="74" y1="149.0" x2="754" y2="149.0" stroke="#e6e5e1" stroke-width="1"/>
<text x="66" y="152.5" font-size="10" fill="#52514e" text-anchor="end">300K</text>
<line x1="74" y1="80.0" x2="754" y2="80.0" stroke="#e6e5e1" stroke-width="1"/>
<text x="66" y="83.5" font-size="10" fill="#52514e" text-anchor="end">400K</text>
<text x="12" y="68" font-size="10" fill="#52514e">moves</text>
<line x1="74" y1="356" x2="754" y2="356" stroke="#52514e" stroke-width="1"/>
<path d="M91.0,356.0 L91.0,250.3 Q91.0,246.3 95.0,246.3 L131.0,246.3 Q135.0,246.3 135.0,250.3 L135.0,356.0 Z" fill="#2a78d6"/>
<text x="113.0" y="241.3" font-size="9.5" fill="#52514e" text-anchor="middle">159K</text>
<path d="M137.0,356.0 L137.0,216.7 Q137.0,212.7 141.0,212.7 L177.0,212.7 Q181.0,212.7 181.0,216.7 L181.0,356.0 Z" fill="#eb6834"/>
<text x="159.0" y="207.7" font-size="9.5" fill="#52514e" text-anchor="middle">208K</text>
<path d="M183.0,356.0 L183.0,160.0 Q183.0,156.0 187.0,156.0 L223.0,156.0 Q227.0,156.0 227.0,160.0 L227.0,356.0 Z" fill="#1baf7a"/>
<text x="205.0" y="151.0" font-size="9.5" fill="#52514e" text-anchor="middle">290K</text>
<text x="159.0" y="376" font-size="11.5" fill="#0b0b0b" text-anchor="middle">random</text>
<path d="M261.0,356.0 L261.0,343.0 Q261.0,339.0 265.0,339.0 L301.0,339.0 Q305.0,339.0 305.0,343.0 L305.0,356.0 Z" fill="#2a78d6"/>
<text x="283.0" y="334.0" font-size="9.5" fill="#52514e" text-anchor="middle">25K</text>
<path d="M307.0,356.0 L307.0,216.7 Q307.0,212.7 311.0,212.7 L347.0,212.7 Q351.0,212.7 351.0,216.7 L351.0,356.0 Z" fill="#eb6834"/>
<text x="329.0" y="207.7" font-size="9.5" fill="#52514e" text-anchor="middle">208K</text>
<path d="M353.0,356.0 L353.0,147.5 Q353.0,143.5 357.0,143.5 L393.0,143.5 Q397.0,143.5 397.0,147.5 L397.0,356.0 Z" fill="#1baf7a"/>
<text x="375.0" y="138.5" font-size="9.5" fill="#52514e" text-anchor="middle">308K</text>
<text x="329.0" y="376" font-size="11.5" fill="#0b0b0b" text-anchor="middle">sorted</text>
<path d="M431.0,356.0 L431.0,136.7 Q431.0,132.7 435.0,132.7 L471.0,132.7 Q475.0,132.7 475.0,136.7 L475.0,356.0 Z" fill="#2a78d6"/>
<text x="453.0" y="127.7" font-size="9.5" fill="#52514e" text-anchor="middle">324K</text>
<path d="M477.0,356.0 L477.0,216.7 Q477.0,212.7 481.0,212.7 L517.0,212.7 Q521.0,212.7 521.0,216.7 L521.0,356.0 Z" fill="#eb6834"/>
<text x="499.0" y="207.7" font-size="9.5" fill="#52514e" text-anchor="middle">208K</text>
<path d="M523.0,356.0 L523.0,172.1 Q523.0,168.1 527.0,168.1 L563.0,168.1 Q567.0,168.1 567.0,172.1 L567.0,356.0 Z" fill="#1baf7a"/>
<text x="545.0" y="163.1" font-size="9.5" fill="#52514e" text-anchor="middle">272K</text>
<text x="499.0" y="376" font-size="11.5" fill="#0b0b0b" text-anchor="middle">reverse</text>
<path d="M601.0,356.0 L601.0,304.1 Q601.0,300.1 605.0,300.1 L641.0,300.1 Q645.0,300.1 645.0,304.1 L645.0,356.0 Z" fill="#2a78d6"/>
<text x="623.0" y="295.1" font-size="9.5" fill="#52514e" text-anchor="middle">81K</text>
<path d="M647.0,356.0 L647.0,216.7 Q647.0,212.7 651.0,212.7 L687.0,212.7 Q691.0,212.7 691.0,216.7 L691.0,356.0 Z" fill="#eb6834"/>
<text x="669.0" y="207.7" font-size="9.5" fill="#52514e" text-anchor="middle">208K</text>
<path d="M693.0,356.0 L693.0,184.5 Q693.0,180.5 697.0,180.5 L733.0,180.5 Q737.0,180.5 737.0,184.5 L737.0,356.0 Z" fill="#1baf7a"/>
<text x="715.0" y="175.5" font-size="9.5" fill="#52514e" text-anchor="middle">254K</text>
<text x="669.0" y="376" font-size="11.5" fill="#0b0b0b" text-anchor="middle">few_unique</text>
</svg>